<svg width="725" height="189" viewBox="0 0 725 189" fill="none" xmlns="http://www.w3.org/2000/svg">
<path d="M0.21875 152.211C0.21875 172.351 16.6087 188.741 36.7487 188.741H151.749C171.889 188.741 188.279 172.351 188.279 152.211V37.2107C188.279 17.0707 171.889 0.680664 151.749 0.680664H36.7487C16.6087 0.680664 0.21875 17.0707 0.21875 37.2107V152.211Z" fill="url(#paint0_linear_14937_489128)"/>
<path d="M0.21875 152.211C0.21875 172.351 16.6087 188.741 36.7487 188.741H151.749C171.889 188.741 188.279 172.351 188.279 152.211V37.2107C188.279 17.0707 171.889 0.680664 151.749 0.680664H36.7487C16.6087 0.680664 0.21875 17.0707 0.21875 37.2107V152.211Z" fill="url(#paint1_linear_14937_489128)"/>
<path d="M157.739 127.171C165.25 127.171 171.339 121.082 171.339 113.571C171.339 106.06 165.25 99.9707 157.739 99.9707C150.228 99.9707 144.139 106.06 144.139 113.571C144.139 121.082 150.228 127.171 157.739 127.171Z" fill="white"/>
<path d="M153.818 37.001H28.5782C26.8282 37.001 25.4082 38.421 25.4082 40.161C25.4082 41.901 26.8282 43.321 28.5782 43.321H153.818C172.698 43.321 188.048 58.891 188.048 78.021L188.388 82.051V56.591C181.248 44.851 168.418 37.001 153.818 37.001Z" fill="white"/>
<g opacity="0.65">
<path d="M24.649 166.891C28.3438 166.891 31.339 163.896 31.339 160.201C31.339 156.506 28.3438 153.511 24.649 153.511C20.9542 153.511 17.959 156.506 17.959 160.201C17.959 163.896 20.9542 166.891 24.649 166.891Z" fill="#4800A3"/>
<path d="M22.6296 150.456C26.3385 149.63 28.6937 146.036 27.8901 142.43C27.0865 138.823 23.4284 136.57 19.7195 137.396C16.0106 138.223 13.6554 141.816 14.459 145.423C15.2626 149.029 18.9207 151.283 22.6296 150.456Z" fill="#4800A3"/>
<path d="M40.3384 173.772C44.0332 173.772 47.0284 170.776 47.0284 167.082C47.0284 163.387 44.0332 160.392 40.3384 160.392C36.6436 160.392 33.6484 163.387 33.6484 167.082C33.6484 170.776 36.6436 173.772 40.3384 173.772Z" fill="#4800A3"/>
<path d="M38.5787 156.522C42.2735 156.522 45.2687 153.526 45.2687 149.832C45.2687 146.137 42.2735 143.142 38.5787 143.142C34.8839 143.142 31.8887 146.137 31.8887 149.832C31.8887 153.526 34.8839 156.522 38.5787 156.522Z" fill="#4800A3"/>
</g>
<path d="M264.439 135.471H244.189L282.259 33.4011H300.079L338.159 135.471H317.899L310.609 114.411H271.729L264.439 135.471ZM304.129 96.5911L291.169 59.3311L278.209 96.5911H304.129Z" fill="#00527D"/>
<path d="M264.439 135.471H244.189L282.259 33.4011H300.079L338.159 135.471H317.899L310.609 114.411H271.729L264.439 135.471ZM304.129 96.5911L291.169 59.3311L278.209 96.5911H304.129Z" fill="url(#paint2_linear_14937_489128)"/>
<path d="M264.439 135.471H244.189L282.259 33.4011H300.079L338.159 135.471H317.899L310.609 114.411H271.729L264.439 135.471ZM304.129 96.5911L291.169 59.3311L278.209 96.5911H304.129Z" fill="url(#paint3_linear_14937_489128)"/>
<path d="M384.329 60.1311C388.969 60.1311 393.399 61.0811 397.619 62.9711C401.829 64.8611 405.529 67.5111 408.719 70.9111C411.899 74.3111 414.439 78.3411 416.329 82.9811C418.219 87.6311 419.169 92.7011 419.169 98.2111C419.169 103.721 418.219 108.801 416.329 113.441C414.439 118.091 411.899 122.111 408.719 125.511C405.529 128.911 401.829 131.561 397.619 133.451C393.409 135.341 388.979 136.291 384.329 136.291C381.199 136.291 378.469 135.911 376.149 135.161C373.829 134.411 371.799 133.601 370.069 132.731C368.129 131.651 366.399 130.411 364.889 129.001V161.401H346.259V60.9411H360.029L363.269 68.2311C364.889 66.7211 366.779 65.3711 368.939 64.1811C370.779 63.2111 372.989 62.2911 375.579 61.4311C378.169 60.5711 381.089 60.1311 384.329 60.1311ZM363.269 98.2111C363.269 104.371 365.049 109.281 368.619 112.951C372.189 116.621 376.609 118.461 381.909 118.461C387.199 118.461 391.629 116.621 395.199 112.951C398.769 109.281 400.549 104.361 400.549 98.2111C400.549 92.0511 398.769 87.1411 395.199 83.4711C391.639 79.8011 387.209 77.9611 381.909 77.9611C376.619 77.9611 372.189 79.8011 368.619 83.4711C365.049 87.1411 363.269 92.0511 363.269 98.2111Z" fill="#00527D"/>
<path d="M384.329 60.1311C388.969 60.1311 393.399 61.0811 397.619 62.9711C401.829 64.8611 405.529 67.5111 408.719 70.9111C411.899 74.3111 414.439 78.3411 416.329 82.9811C418.219 87.6311 419.169 92.7011 419.169 98.2111C419.169 103.721 418.219 108.801 416.329 113.441C414.439 118.091 411.899 122.111 408.719 125.511C405.529 128.911 401.829 131.561 397.619 133.451C393.409 135.341 388.979 136.291 384.329 136.291C381.199 136.291 378.469 135.911 376.149 135.161C373.829 134.411 371.799 133.601 370.069 132.731C368.129 131.651 366.399 130.411 364.889 129.001V161.401H346.259V60.9411H360.029L363.269 68.2311C364.889 66.7211 366.779 65.3711 368.939 64.1811C370.779 63.2111 372.989 62.2911 375.579 61.4311C378.169 60.5711 381.089 60.1311 384.329 60.1311ZM363.269 98.2111C363.269 104.371 365.049 109.281 368.619 112.951C372.189 116.621 376.609 118.461 381.909 118.461C387.199 118.461 391.629 116.621 395.199 112.951C398.769 109.281 400.549 104.361 400.549 98.2111C400.549 92.0511 398.769 87.1411 395.199 83.4711C391.639 79.8011 387.209 77.9611 381.909 77.9611C376.619 77.9611 372.189 79.8011 368.619 83.4711C365.049 87.1411 363.269 92.0511 363.269 98.2111Z" fill="url(#paint4_linear_14937_489128)"/>
<path d="M384.329 60.1311C388.969 60.1311 393.399 61.0811 397.619 62.9711C401.829 64.8611 405.529 67.5111 408.719 70.9111C411.899 74.3111 414.439 78.3411 416.329 82.9811C418.219 87.6311 419.169 92.7011 419.169 98.2111C419.169 103.721 418.219 108.801 416.329 113.441C414.439 118.091 411.899 122.111 408.719 125.511C405.529 128.911 401.829 131.561 397.619 133.451C393.409 135.341 388.979 136.291 384.329 136.291C381.199 136.291 378.469 135.911 376.149 135.161C373.829 134.411 371.799 133.601 370.069 132.731C368.129 131.651 366.399 130.411 364.889 129.001V161.401H346.259V60.9411H360.029L363.269 68.2311C364.889 66.7211 366.779 65.3711 368.939 64.1811C370.779 63.2111 372.989 62.2911 375.579 61.4311C378.169 60.5711 381.089 60.1311 384.329 60.1311ZM363.269 98.2111C363.269 104.371 365.049 109.281 368.619 112.951C372.189 116.621 376.609 118.461 381.909 118.461C387.199 118.461 391.629 116.621 395.199 112.951C398.769 109.281 400.549 104.361 400.549 98.2111C400.549 92.0511 398.769 87.1411 395.199 83.4711C391.639 79.8011 387.209 77.9611 381.909 77.9611C376.619 77.9611 372.189 79.8011 368.619 83.4711C365.049 87.1411 363.269 92.0511 363.269 98.2111Z" fill="url(#paint5_linear_14937_489128)"/>
<path d="M499.359 112.791C498.389 115.601 496.899 118.411 494.899 121.211C492.899 124.021 490.469 126.531 487.609 128.741C484.749 130.951 481.509 132.761 477.889 134.171C474.269 135.571 470.359 136.281 466.139 136.281C461.059 136.281 456.279 135.281 451.799 133.281C447.319 131.281 443.379 128.561 439.969 125.101C436.569 121.641 433.869 117.621 431.869 113.031C429.869 108.441 428.869 103.501 428.869 98.2111C428.869 92.9211 429.869 87.9811 431.869 83.3911C433.869 78.8011 436.569 74.7811 439.969 71.3211C443.369 67.8611 447.309 65.1411 451.799 63.1411C456.279 61.1411 461.059 60.1411 466.139 60.1411C470.999 60.1411 475.589 61.0611 479.909 62.8911C484.229 64.7311 488.009 67.3211 491.249 70.6711C494.489 74.0211 497.049 78.0411 498.949 82.7411C500.839 87.4411 501.789 92.6011 501.789 98.2111C501.789 99.0811 501.729 99.9111 501.629 100.721C501.519 101.531 501.409 102.311 501.309 103.071C501.199 103.941 501.089 104.751 500.989 105.501H449.139C449.999 109.171 451.839 112.251 454.649 114.731C457.459 117.221 461.289 118.461 466.149 118.461C468.629 118.461 470.709 118.191 472.389 117.651C474.059 117.111 475.489 116.461 476.679 115.711C477.979 114.851 479.059 113.871 479.919 112.791H499.359ZM466.149 77.9511C461.289 77.9511 457.319 79.3611 454.239 82.1611C451.159 84.9711 449.189 88.4311 448.329 92.5311H483.969C483.099 88.4311 481.129 84.9711 478.059 82.1611C474.979 79.3611 471.009 77.9511 466.149 77.9511Z" fill="#00527D"/>
<path d="M499.359 112.791C498.389 115.601 496.899 118.411 494.899 121.211C492.899 124.021 490.469 126.531 487.609 128.741C484.749 130.951 481.509 132.761 477.889 134.171C474.269 135.571 470.359 136.281 466.139 136.281C461.059 136.281 456.279 135.281 451.799 133.281C447.319 131.281 443.379 128.561 439.969 125.101C436.569 121.641 433.869 117.621 431.869 113.031C429.869 108.441 428.869 103.501 428.869 98.2111C428.869 92.9211 429.869 87.9811 431.869 83.3911C433.869 78.8011 436.569 74.7811 439.969 71.3211C443.369 67.8611 447.309 65.1411 451.799 63.1411C456.279 61.1411 461.059 60.1411 466.139 60.1411C470.999 60.1411 475.589 61.0611 479.909 62.8911C484.229 64.7311 488.009 67.3211 491.249 70.6711C494.489 74.0211 497.049 78.0411 498.949 82.7411C500.839 87.4411 501.789 92.6011 501.789 98.2111C501.789 99.0811 501.729 99.9111 501.629 100.721C501.519 101.531 501.409 102.311 501.309 103.071C501.199 103.941 501.089 104.751 500.989 105.501H449.139C449.999 109.171 451.839 112.251 454.649 114.731C457.459 117.221 461.289 118.461 466.149 118.461C468.629 118.461 470.709 118.191 472.389 117.651C474.059 117.111 475.489 116.461 476.679 115.711C477.979 114.851 479.059 113.871 479.919 112.791H499.359ZM466.149 77.9511C461.289 77.9511 457.319 79.3611 454.239 82.1611C451.159 84.9711 449.189 88.4311 448.329 92.5311H483.969C483.099 88.4311 481.129 84.9711 478.059 82.1611C474.979 79.3611 471.009 77.9511 466.149 77.9511Z" fill="url(#paint6_linear_14937_489128)"/>
<path d="M499.359 112.791C498.389 115.601 496.899 118.411 494.899 121.211C492.899 124.021 490.469 126.531 487.609 128.741C484.749 130.951 481.509 132.761 477.889 134.171C474.269 135.571 470.359 136.281 466.139 136.281C461.059 136.281 456.279 135.281 451.799 133.281C447.319 131.281 443.379 128.561 439.969 125.101C436.569 121.641 433.869 117.621 431.869 113.031C429.869 108.441 428.869 103.501 428.869 98.2111C428.869 92.9211 429.869 87.9811 431.869 83.3911C433.869 78.8011 436.569 74.7811 439.969 71.3211C443.369 67.8611 447.309 65.1411 451.799 63.1411C456.279 61.1411 461.059 60.1411 466.139 60.1411C470.999 60.1411 475.589 61.0611 479.909 62.8911C484.229 64.7311 488.009 67.3211 491.249 70.6711C494.489 74.0211 497.049 78.0411 498.949 82.7411C500.839 87.4411 501.789 92.6011 501.789 98.2111C501.789 99.0811 501.729 99.9111 501.629 100.721C501.519 101.531 501.409 102.311 501.309 103.071C501.199 103.941 501.089 104.751 500.989 105.501H449.139C449.999 109.171 451.839 112.251 454.649 114.731C457.459 117.221 461.289 118.461 466.149 118.461C468.629 118.461 470.709 118.191 472.389 117.651C474.059 117.111 475.489 116.461 476.679 115.711C477.979 114.851 479.059 113.871 479.919 112.791H499.359ZM466.149 77.9511C461.289 77.9511 457.319 79.3611 454.239 82.1611C451.159 84.9711 449.189 88.4311 448.329 92.5311H483.969C483.099 88.4311 481.129 84.9711 478.059 82.1611C474.979 79.3611 471.009 77.9511 466.149 77.9511Z" fill="url(#paint7_linear_14937_489128)"/>
<path d="M534.189 135.471H515.559V33.4011H534.189V135.471Z" fill="#00527D"/>
<path d="M534.189 135.471H515.559V33.4011H534.189V135.471Z" fill="url(#paint8_linear_14937_489128)"/>
<path d="M534.189 135.471H515.559V33.4011H534.189V135.471Z" fill="url(#paint9_linear_14937_489128)"/>
<path d="M565.789 111.981C566.219 114.471 567.409 116.571 569.349 118.301C571.289 120.031 573.889 120.891 577.129 120.891C580.369 120.891 582.939 120.051 584.829 118.381C586.719 116.711 587.669 114.841 587.669 112.791C587.669 111.061 586.719 109.711 584.829 108.741C582.939 107.771 580.589 106.881 577.779 106.071C574.969 105.261 571.919 104.421 568.629 103.561C565.329 102.701 562.279 101.431 559.479 99.7511C556.669 98.0811 554.319 95.9211 552.429 93.2711C550.539 90.6211 549.589 87.1411 549.589 82.8211C549.589 79.8011 550.209 76.9111 551.449 74.1511C552.689 71.4011 554.499 68.9911 556.879 66.9411C559.249 64.8911 562.059 63.2411 565.299 62.0011C568.539 60.7611 572.209 60.1411 576.319 60.1411C585.279 60.1411 592.169 62.3011 596.979 66.6211C601.779 70.9411 604.619 76.3411 605.489 82.8211H587.669C587.239 81.2011 586.079 79.5811 584.189 77.9611C582.299 76.3411 579.949 75.5311 577.139 75.5311C574.329 75.5311 572.139 76.2311 570.579 77.6411C569.009 79.0511 568.229 80.7711 568.229 82.8211C568.229 84.5511 569.169 85.9011 571.069 86.8711C572.959 87.8411 575.309 88.7311 578.119 89.5411C580.929 90.3511 583.979 91.2211 587.269 92.1311C590.559 93.0511 593.609 94.3711 596.419 96.1011C599.229 97.8311 601.579 100.071 603.469 102.821C605.359 105.571 606.309 109.171 606.309 113.591C606.309 116.621 605.659 119.501 604.369 122.261C603.069 125.011 601.239 127.421 598.859 129.471C596.479 131.521 593.589 133.171 590.189 134.411C586.789 135.651 582.979 136.271 578.769 136.271C569.049 136.271 561.679 134.061 556.649 129.631C551.629 125.201 548.739 119.321 547.979 111.971H565.789V111.981Z" fill="#00527D"/>
<path d="M565.789 111.981C566.219 114.471 567.409 116.571 569.349 118.301C571.289 120.031 573.889 120.891 577.129 120.891C580.369 120.891 582.939 120.051 584.829 118.381C586.719 116.711 587.669 114.841 587.669 112.791C587.669 111.061 586.719 109.711 584.829 108.741C582.939 107.771 580.589 106.881 577.779 106.071C574.969 105.261 571.919 104.421 568.629 103.561C565.329 102.701 562.279 101.431 559.479 99.7511C556.669 98.0811 554.319 95.9211 552.429 93.2711C550.539 90.6211 549.589 87.1411 549.589 82.8211C549.589 79.8011 550.209 76.9111 551.449 74.1511C552.689 71.4011 554.499 68.9911 556.879 66.9411C559.249 64.8911 562.059 63.2411 565.299 62.0011C568.539 60.7611 572.209 60.1411 576.319 60.1411C585.279 60.1411 592.169 62.3011 596.979 66.6211C601.779 70.9411 604.619 76.3411 605.489 82.8211H587.669C587.239 81.2011 586.079 79.5811 584.189 77.9611C582.299 76.3411 579.949 75.5311 577.139 75.5311C574.329 75.5311 572.139 76.2311 570.579 77.6411C569.009 79.0511 568.229 80.7711 568.229 82.8211C568.229 84.5511 569.169 85.9011 571.069 86.8711C572.959 87.8411 575.309 88.7311 578.119 89.5411C580.929 90.3511 583.979 91.2211 587.269 92.1311C590.559 93.0511 593.609 94.3711 596.419 96.1011C599.229 97.8311 601.579 100.071 603.469 102.821C605.359 105.571 606.309 109.171 606.309 113.591C606.309 116.621 605.659 119.501 604.369 122.261C603.069 125.011 601.239 127.421 598.859 129.471C596.479 131.521 593.589 133.171 590.189 134.411C586.789 135.651 582.979 136.271 578.769 136.271C569.049 136.271 561.679 134.061 556.649 129.631C551.629 125.201 548.739 119.321 547.979 111.971H565.789V111.981Z" fill="url(#paint10_linear_14937_489128)"/>
<path d="M565.789 111.981C566.219 114.471 567.409 116.571 569.349 118.301C571.289 120.031 573.889 120.891 577.129 120.891C580.369 120.891 582.939 120.051 584.829 118.381C586.719 116.711 587.669 114.841 587.669 112.791C587.669 111.061 586.719 109.711 584.829 108.741C582.939 107.771 580.589 106.881 577.779 106.071C574.969 105.261 571.919 104.421 568.629 103.561C565.329 102.701 562.279 101.431 559.479 99.7511C556.669 98.0811 554.319 95.9211 552.429 93.2711C550.539 90.6211 549.589 87.1411 549.589 82.8211C549.589 79.8011 550.209 76.9111 551.449 74.1511C552.689 71.4011 554.499 68.9911 556.879 66.9411C559.249 64.8911 562.059 63.2411 565.299 62.0011C568.539 60.7611 572.209 60.1411 576.319 60.1411C585.279 60.1411 592.169 62.3011 596.979 66.6211C601.779 70.9411 604.619 76.3411 605.489 82.8211H587.669C587.239 81.2011 586.079 79.5811 584.189 77.9611C582.299 76.3411 579.949 75.5311 577.139 75.5311C574.329 75.5311 572.139 76.2311 570.579 77.6411C569.009 79.0511 568.229 80.7711 568.229 82.8211C568.229 84.5511 569.169 85.9011 571.069 86.8711C572.959 87.8411 575.309 88.7311 578.119 89.5411C580.929 90.3511 583.979 91.2211 587.269 92.1311C590.559 93.0511 593.609 94.3711 596.419 96.1011C599.229 97.8311 601.579 100.071 603.469 102.821C605.359 105.571 606.309 109.171 606.309 113.591C606.309 116.621 605.659 119.501 604.369 122.261C603.069 125.011 601.239 127.421 598.859 129.471C596.479 131.521 593.589 133.171 590.189 134.411C586.789 135.651 582.979 136.271 578.769 136.271C569.049 136.271 561.679 134.061 556.649 129.631C551.629 125.201 548.739 119.321 547.979 111.971H565.789V111.981Z" fill="url(#paint11_linear_14937_489128)"/>
<path d="M629.779 51.2211C626.969 51.2211 624.509 50.1711 622.409 48.0611C620.299 45.9511 619.249 43.5011 619.249 40.6911C619.249 37.8811 620.299 35.4211 622.409 33.3211C624.519 31.2111 626.969 30.1611 629.779 30.1611C632.589 30.1611 635.049 31.2111 637.149 33.3211C639.249 35.4311 640.309 37.8811 640.309 40.6911C640.309 43.5011 639.259 45.9611 637.149 48.0611C635.049 50.1711 632.589 51.2211 629.779 51.2211ZM638.689 135.471H620.059V60.9411H638.689V135.471Z" fill="#00527D"/>
<path d="M629.779 51.2211C626.969 51.2211 624.509 50.1711 622.409 48.0611C620.299 45.9511 619.249 43.5011 619.249 40.6911C619.249 37.8811 620.299 35.4211 622.409 33.3211C624.519 31.2111 626.969 30.1611 629.779 30.1611C632.589 30.1611 635.049 31.2111 637.149 33.3211C639.249 35.4311 640.309 37.8811 640.309 40.6911C640.309 43.5011 639.259 45.9611 637.149 48.0611C635.049 50.1711 632.589 51.2211 629.779 51.2211ZM638.689 135.471H620.059V60.9411H638.689V135.471Z" fill="url(#paint12_linear_14937_489128)"/>
<path d="M629.779 51.2211C626.969 51.2211 624.509 50.1711 622.409 48.0611C620.299 45.9511 619.249 43.5011 619.249 40.6911C619.249 37.8811 620.299 35.4211 622.409 33.3211C624.519 31.2111 626.969 30.1611 629.779 30.1611C632.589 30.1611 635.049 31.2111 637.149 33.3211C639.249 35.4311 640.309 37.8811 640.309 40.6911C640.309 43.5011 639.259 45.9611 637.149 48.0611C635.049 50.1711 632.589 51.2211 629.779 51.2211ZM638.689 135.471H620.059V60.9411H638.689V135.471Z" fill="url(#paint13_linear_14937_489128)"/>
<path d="M694.589 60.1311C699.019 60.1311 703.069 60.8611 706.739 62.3211C710.409 63.7811 713.569 65.8811 716.219 68.6411C718.859 71.3911 720.919 74.7211 722.379 78.6011C723.839 82.4911 724.569 86.8611 724.569 91.7211V135.461H705.939V94.1511C705.939 89.2911 704.509 85.3811 701.649 82.4011C698.789 79.4311 695.089 77.9411 690.549 77.9411C686.009 77.9411 682.309 79.4311 679.449 82.4011C676.589 85.3711 675.159 89.2911 675.159 94.1511V135.461H656.529V60.9311H670.299L673.539 68.2211C675.379 66.7111 677.369 65.3611 679.529 64.1711C681.369 63.2011 683.549 62.2811 686.089 61.4211C688.619 60.5711 691.449 60.1311 694.589 60.1311Z" fill="#00527D"/>
<path d="M694.589 60.1311C699.019 60.1311 703.069 60.8611 706.739 62.3211C710.409 63.7811 713.569 65.8811 716.219 68.6411C718.859 71.3911 720.919 74.7211 722.379 78.6011C723.839 82.4911 724.569 86.8611 724.569 91.7211V135.461H705.939V94.1511C705.939 89.2911 704.509 85.3811 701.649 82.4011C698.789 79.4311 695.089 77.9411 690.549 77.9411C686.009 77.9411 682.309 79.4311 679.449 82.4011C676.589 85.3711 675.159 89.2911 675.159 94.1511V135.461H656.529V60.9311H670.299L673.539 68.2211C675.379 66.7111 677.369 65.3611 679.529 64.1711C681.369 63.2011 683.549 62.2811 686.089 61.4211C688.619 60.5711 691.449 60.1311 694.589 60.1311Z" fill="url(#paint14_linear_14937_489128)"/>
<path d="M694.589 60.1311C699.019 60.1311 703.069 60.8611 706.739 62.3211C710.409 63.7811 713.569 65.8811 716.219 68.6411C718.859 71.3911 720.919 74.7211 722.379 78.6011C723.839 82.4911 724.569 86.8611 724.569 91.7211V135.461H705.939V94.1511C705.939 89.2911 704.509 85.3811 701.649 82.4011C698.789 79.4311 695.089 77.9411 690.549 77.9411C686.009 77.9411 682.309 79.4311 679.449 82.4011C676.589 85.3711 675.159 89.2911 675.159 94.1511V135.461H656.529V60.9311H670.299L673.539 68.2211C675.379 66.7111 677.369 65.3611 679.529 64.1711C681.369 63.2011 683.549 62.2811 686.089 61.4211C688.619 60.5711 691.449 60.1311 694.589 60.1311Z" fill="url(#paint15_linear_14937_489128)"/>
<defs>
<linearGradient id="paint0_linear_14937_489128" x1="170.236" y1="8.86285" x2="14.2421" y2="185.108" gradientUnits="userSpaceOnUse">
<stop stop-color="#FCB94D"/>
<stop offset="0.3065" stop-color="#F7903F"/>
<stop offset="0.7747" stop-color="#F1562B"/>
<stop offset="1" stop-color="#EE4023"/>
</linearGradient>
<linearGradient id="paint1_linear_14937_489128" x1="187.999" y1="1.00098" x2="-38.9361" y2="95.5093" gradientUnits="userSpaceOnUse">
<stop offset="0.121152" stop-color="#FE8A01"/>
<stop offset="0.90625" stop-color="#7025FB"/>
</linearGradient>
<linearGradient id="paint2_linear_14937_489128" x1="723.855" y1="30.3847" x2="519.196" y2="342.359" gradientUnits="userSpaceOnUse">
<stop stop-color="#8967F1"/>
<stop offset="1" stop-color="#6A00E0"/>
</linearGradient>
<linearGradient id="paint3_linear_14937_489128" x1="723.855" y1="30.3847" x2="519.196" y2="342.359" gradientUnits="userSpaceOnUse">
<stop offset="0.121152" stop-color="#FE8A01"/>
<stop offset="0.90625" stop-color="#7025FB"/>
</linearGradient>
<linearGradient id="paint4_linear_14937_489128" x1="723.855" y1="30.3847" x2="519.196" y2="342.359" gradientUnits="userSpaceOnUse">
<stop stop-color="#8967F1"/>
<stop offset="1" stop-color="#6A00E0"/>
</linearGradient>
<linearGradient id="paint5_linear_14937_489128" x1="723.855" y1="30.3847" x2="519.196" y2="342.359" gradientUnits="userSpaceOnUse">
<stop offset="0.121152" stop-color="#FE8A01"/>
<stop offset="0.90625" stop-color="#7025FB"/>
</linearGradient>
<linearGradient id="paint6_linear_14937_489128" x1="723.855" y1="30.3847" x2="519.196" y2="342.359" gradientUnits="userSpaceOnUse">
<stop stop-color="#8967F1"/>
<stop offset="1" stop-color="#6A00E0"/>
</linearGradient>
<linearGradient id="paint7_linear_14937_489128" x1="723.855" y1="30.3847" x2="519.196" y2="342.359" gradientUnits="userSpaceOnUse">
<stop offset="0.121152" stop-color="#FE8A01"/>
<stop offset="0.90625" stop-color="#7025FB"/>
</linearGradient>
<linearGradient id="paint8_linear_14937_489128" x1="723.855" y1="30.3847" x2="519.196" y2="342.359" gradientUnits="userSpaceOnUse">
<stop stop-color="#8967F1"/>
<stop offset="1" stop-color="#6A00E0"/>
</linearGradient>
<linearGradient id="paint9_linear_14937_489128" x1="723.855" y1="30.3847" x2="519.196" y2="342.359" gradientUnits="userSpaceOnUse">
<stop offset="0.121152" stop-color="#FE8A01"/>
<stop offset="0.90625" stop-color="#7025FB"/>
</linearGradient>
<linearGradient id="paint10_linear_14937_489128" x1="723.855" y1="30.3847" x2="519.196" y2="342.359" gradientUnits="userSpaceOnUse">
<stop stop-color="#8967F1"/>
<stop offset="1" stop-color="#6A00E0"/>
</linearGradient>
<linearGradient id="paint11_linear_14937_489128" x1="723.855" y1="30.3847" x2="519.196" y2="342.359" gradientUnits="userSpaceOnUse">
<stop offset="0.121152" stop-color="#FE8A01"/>
<stop offset="0.90625" stop-color="#7025FB"/>
</linearGradient>
<linearGradient id="paint12_linear_14937_489128" x1="723.855" y1="30.3847" x2="519.196" y2="342.359" gradientUnits="userSpaceOnUse">
<stop stop-color="#8967F1"/>
<stop offset="1" stop-color="#6A00E0"/>
</linearGradient>
<linearGradient id="paint13_linear_14937_489128" x1="723.855" y1="30.3847" x2="519.196" y2="342.359" gradientUnits="userSpaceOnUse">
<stop offset="0.121152" stop-color="#FE8A01"/>
<stop offset="0.90625" stop-color="#7025FB"/>
</linearGradient>
<linearGradient id="paint14_linear_14937_489128" x1="723.855" y1="30.3847" x2="519.196" y2="342.359" gradientUnits="userSpaceOnUse">
<stop stop-color="#8967F1"/>
<stop offset="1" stop-color="#6A00E0"/>
</linearGradient>
<linearGradient id="paint15_linear_14937_489128" x1="723.855" y1="30.3847" x2="519.196" y2="342.359" gradientUnits="userSpaceOnUse">
<stop offset="0.121152" stop-color="#FE8A01"/>
<stop offset="0.90625" stop-color="#7025FB"/>
</linearGradient>
</defs>
</svg>
